<svg xmlns="http://www.w3.org/2000/svg" viewBox="-5 -10 110 135"><path d="M74.809 59.688c2.508 3.66 3.379 8.16 2.664 13.758-.351 2.777-2.512 5.156-6.418 7.066-4.969 2.43-12.016 3.75-18.898 4.82-4.262.657-17.387.75-17.516.75a2.855 2.855 0 0 1-2.016-4.87 2.83 2.83 0 0 1 2.016-.836h.055l8.484-.805h.008a.59.59 0 0 0 .484-.371q.011-.024.016-.047a.5.5 0 0 0 .023-.219v-.008c-.004-.035-.007-.07-.02-.101a.4.4 0 0 0-.046-.11l-.023-.042q-.014-.025-.04-.055a.1.1 0 0 0-.03-.031.2.2 0 0 0-.04-.04.3.3 0 0 0-.078-.054l-.02-.012-.039-.023-.054-.024a.5.5 0 0 0-.192-.035h-.007l-17.316-.805h-.028a2.855 2.855 0 0 1-2.851-2.851c0-.766.296-1.48.836-2.016a2.82 2.82 0 0 1 2.015-.836h.027l17.348-.808h.047a.4.4 0 0 0 .094-.024.5.5 0 0 0 .149-.07.4.4 0 0 0 .085-.07.2.2 0 0 0 .04-.04.2.2 0 0 0 .03-.039.3.3 0 0 0 .048-.082l.023-.046a.1.1 0 0 0 .016-.051q.01-.025.015-.055.007-.016.008-.039c.001-.023.004-.023.004-.039v-.016q.001-.046-.004-.093a.1.1 0 0 0-.008-.043.14.14 0 0 0-.015-.055l-.016-.05-.023-.056a.2.2 0 0 0-.028-.042q-.014-.024-.03-.047-.018-.026-.04-.04c-.008-.015-.023-.023-.031-.03l-.07-.055c-.016-.008-.032-.02-.047-.028l-.051-.023a.1.1 0 0 0-.055-.016c-.016-.008-.039-.011-.055-.015a.2.2 0 0 0-.046-.008h-.04l-20.672-.805h-.023a2.855 2.855 0 0 1-2.852-2.851c0-.766.297-1.481.836-2.016a2.84 2.84 0 0 1 2.016-.836h.023l20.648-.805h.036q.022.001.039-.004.016.002.039-.007a.14.14 0 0 0 .054-.016.6.6 0 0 0 .274-.176q.011-.011.015-.023.035-.04.059-.086c.024-.046.031-.07.043-.11a.2.2 0 0 0 .016-.054c.007-.047.015-.09.011-.137v-.012q.001-.022-.004-.039c0-.015 0-.023-.007-.039q-.002-.03-.016-.055a.5.5 0 0 0-.102-.19.1.1 0 0 0-.027-.032c-.008-.012-.023-.024-.031-.031a.56.56 0 0 0-.352-.164h-.024l-17.347-.805h-.027a2.856 2.856 0 0 1-2.016-4.871 2.82 2.82 0 0 1 2.023-.836l13.312-.239 12.02.079h.008a.877.877 0 0 0 .516-1.59c-.047-.04-5.036-3.68-7.25-7.399-.73-1.23-1.07-2.968-.09-3.875.773-.714 2.14-.53 3.57.485 3.524 2.504 10.63 6.824 18.56 10.836 3.284 1.66 6.07 3.789 8.187 6.226q.002.001.004.008l.187.27z"/><path d="M53.406 30.555c.023-.02.04-.04.059-.062.007-.004.007-.008.011-.012q.014-.011.016-.028.007-.004.008-.015.001-.007.008-.008a.2.2 0 0 0 .03-.062q.008-.011.009-.016a.2.2 0 0 0 .023-.067.4.4 0 0 0 .016-.066.7.7 0 0 0 .004-.156c0-.024-.008-.047-.012-.067 0-.015-.008-.023-.008-.039q-.005-.023-.016-.043v-.004c-.007-.023-.015-.039-.023-.058l-.008-.012q-.013-.023-.031-.047c0-.004-.008-.008-.008-.011-.012-.016-.023-.036-.043-.051a.1.1 0 0 0-.039-.04q-.012-.012-.023-.019c-.004-.008-.008-.008-.012-.012l-13.82-10.516s-.016-.007-.023-.015a2.85 2.85 0 0 1-.727-3.969 2.855 2.855 0 0 1 3.977-.727l21.109 14.012a.55.55 0 0 0 .246.098q.047.01.09.008c.023 0 .054 0 .078-.008a.6.6 0 0 0 .117-.027q.056-.023.101-.047c.016-.008.036-.024.055-.031a.03.03 0 0 0 .016-.016.3.3 0 0 0 .058-.055c.016-.015.032-.039.047-.058q.059-.078.086-.172.013-.04.02-.086.009-.048.007-.09c0-.023 0-.055-.007-.078 0-.023-.008-.04-.012-.063-.004-.015-.008-.039-.016-.054l-.008-.024c-.136-.394-2.058-6.062-1.773-10.305.148-2.21 1.305-3.36 2.375-3.507 1.188-.168 2.332.828 2.98 2.609 1.477 4.055 4.864 11.625 9.11 19.414 4.016 7.375 3.633 14.473-1.14 21.133a.877.877 0 0 1-1.348.086c-2.086-2.145-4.68-4.024-7.743-5.574-7.804-3.946-14.977-8.313-18.336-10.695-2.558-1.817-4.664-1.368-5.777-.34a3.5 3.5 0 0 0-.656.828.885.885 0 0 1-1.305.281l-11.254-8.558s-.015-.008-.023-.016a2.853 2.853 0 0 1-.727-3.973 2.855 2.855 0 0 1 3.969-.73c.008.008.016.008.023.016l14.738 9.187.04.023a1 1 0 0 0 .085.04q.049.01.09.023a.4.4 0 0 0 .09.008c.047 0 .086-.008.133-.016.008 0 .023-.008.031-.008q.023-.004.047-.015c.016-.008.031-.012.047-.024a.2.2 0 0 0 .055-.031.3.3 0 0 0 .054-.04.2.2 0 0 0 .055-.054.2.2 0 0 0 .04-.047v-.004c.007-.011.019-.023.026-.039.008-.011.016-.027.024-.039a1 1 0 0 0 .039-.086l.023-.09q.01-.046.008-.09a.7.7 0 0 0-.023-.163q-.005-.025-.016-.051l-.023-.055c-.008-.015-.016-.023-.024-.039 0-.008-.008-.008-.008-.015l-.027-.04c-.008-.015-.023-.027-.035-.039a.2.2 0 0 0-.04-.039c-.007-.011-.023-.02-.03-.027l-.04-.031L31.98 24.235s-.012-.008-.02-.016a2.85 2.85 0 0 1-1.187-1.836 2.82 2.82 0 0 1 .457-2.137 2.855 2.855 0 0 1 3.968-.73l.016.012 17.434 11.047.039.027s.012.008.016.008q.022.012.047.023.017.011.035.016a.6.6 0 0 0 .383.02q.022-.005.046-.016a.4.4 0 0 0 .063-.027l.012-.008q.022-.013.046-.032c.004 0 .008-.007.012-.007q.025-.016.051-.043zm-7.133 22.39-1.629-.008a.9.9 0 0 1-.45-.125c-4.804-2.902-11.772-7.625-11.843-7.672a2.853 2.853 0 0 1-.727-3.972 2.85 2.85 0 0 1 3.97-.727q.022.013.046.031l5.937 3.313c.235.129.391.36.438.617.125.703.402 1.46.867 2.242 1.031 1.735 2.57 3.418 4 4.781.578.555.188 1.524-.61 1.524z"/></svg>